<?xml version="1.0" encoding="UTF-8"?>
<svg xmlns="http://www.w3.org/2000/svg" width="1600" height="900" viewBox="0 0 1600 900" role="img" aria-hidden="true">
  <defs>
    <linearGradient id="sky" x1="0" y1="0" x2="0" y2="1">
      <stop offset="0%" stop-color="#171022"/>
      <stop offset="42%" stop-color="#372a3c"/>
      <stop offset="76%" stop-color="#86544c"/>
      <stop offset="100%" stop-color="#dc9a66"/>
    </linearGradient>
    <radialGradient id="glow" cx="72%" cy="62%" r="55%">
      <stop offset="0%" stop-color="#ffe1ab" stop-opacity="0.95"/>
      <stop offset="42%" stop-color="#f2925a" stop-opacity="0.55"/>
      <stop offset="100%" stop-color="#f2925a" stop-opacity="0"/>
    </radialGradient>
    <linearGradient id="limb" x1="0" y1="0" x2="1" y2="0">
      <stop offset="0%" stop-color="#fff4e0" stop-opacity="0"/>
      <stop offset="50%" stop-color="#fff4e0"/>
      <stop offset="100%" stop-color="#fff4e0" stop-opacity="0"/>
    </linearGradient>
  </defs>
  <rect width="1600" height="900" fill="url(#sky)"/>
  <ellipse cx="1150" cy="560" rx="900" ry="380" fill="url(#glow)"/>
  <g fill="#fff4e0" opacity="0.85">
    <circle cx="120" cy="80" r="1.4"/><circle cx="220" cy="140" r="1.1"/><circle cx="340" cy="60" r="1.6"/>
    <circle cx="480" cy="110" r="1.2"/><circle cx="90" cy="220" r="1.3"/><circle cx="400" cy="200" r="1.0"/>
    <circle cx="560" cy="50" r="1.5"/><circle cx="640" cy="160" r="1.1"/><circle cx="180" cy="300" r="1.2"/>
    <circle cx="300" cy="280" r="1.0"/><circle cx="520" cy="250" r="1.4"/><circle cx="700" cy="90" r="1.2"/>
    <circle cx="60" cy="160" r="1.0"/><circle cx="250" cy="40" r="1.3"/><circle cx="430" cy="320" r="1.1"/>
  </g>
  <path d="M -40 560 Q 800 420 1640 580 L 1640 920 L -40 920 Z" fill="#0e0a13"/>
  <path d="M -40 560 Q 800 420 1640 580" fill="none" stroke="url(#limb)" stroke-width="5"/>
  <path d="M 980 720 L 1120 640 L 1280 700 L 1420 660 L 1600 740 L 1600 900 L 980 900 Z" fill="#1a1218"/>
  <path d="M 1050 700 L 1180 655 L 1300 710" fill="none" stroke="#3a2a32" stroke-width="2" opacity="0.5"/>
  <g transform="translate(420 260)">
    <ellipse cx="0" cy="8" rx="28" ry="10" fill="#2a2228" opacity="0.35"/>
    <ellipse cx="0" cy="0" rx="26" ry="12" fill="#3a343a"/>
    <ellipse cx="0" cy="-2" rx="18" ry="7" fill="#5a5058"/>
    <circle cx="-6" cy="-2" r="3" fill="#ffe1ab" opacity="0.9"/>
    <line x1="-22" y1="4" x2="-34" y2="18" stroke="#6F6660" stroke-width="2"/>
    <line x1="22" y1="4" x2="34" y2="18" stroke="#6F6660" stroke-width="2"/>
    <line x1="0" y1="10" x2="0" y2="24" stroke="#6F6660" stroke-width="2"/>
    <circle cx="-34" cy="18" r="2.5" fill="#C8471B"/>
    <circle cx="34" cy="18" r="2.5" fill="#C8471B"/>
    <circle cx="0" cy="24" r="2.5" fill="#C8471B"/>
  </g>
  <g transform="translate(1240 620)">
    <ellipse cx="0" cy="48" rx="22" ry="8" fill="#000" opacity="0.35"/>
    <ellipse cx="0" cy="20" rx="16" ry="22" fill="#EBE4DF"/>
    <circle cx="0" cy="-6" r="16" fill="#EBE4DF"/>
    <ellipse cx="-7" cy="-6" rx="5" ry="6" fill="#1C1A1F"/>
    <ellipse cx="7" cy="-6" rx="5" ry="6" fill="#1C1A1F"/>
    <circle cx="-7" cy="-6" r="2" fill="#C8471B" opacity="0.85"/>
    <circle cx="7" cy="-6" r="2" fill="#C8471B" opacity="0.85"/>
    <path d="M -10 8 Q -40 -10 -70 -36" fill="none" stroke="#EBE4DF" stroke-width="6" stroke-linecap="round"/>
    <circle cx="-70" cy="-36" r="4" fill="#EBE4DF"/>
    <line x1="-6" y1="-20" x2="-14" y2="-38" stroke="#A39992" stroke-width="2"/>
    <line x1="6" y1="-20" x2="14" y2="-38" stroke="#A39992" stroke-width="2"/>
    <circle cx="-14" cy="-38" r="3" fill="#C8471B"/>
    <circle cx="14" cy="-38" r="3" fill="#C8471B"/>
  </g>
</svg>
